<svg version="1.1" id="Слой_1" xmlns="http://www.w3.org/2000/svg" x="0" y="0" viewBox="0 0 268.9 409" xml:space="preserve"><g id="Монтажная_область_1"><path d="M268.9 5v399c0 2.8-2.2 5-5 5H5c-2.8 0-5-2.2-5-5V5c0-2.8 2.2-5 5-5h258.9c2.8 0 5 2.2 5 5z" fill="#44444f"/><path d="M268.9 283.6v11.5l-13.3 7.7c-2.4 1.4-5.5.6-6.8-1.8-1.4-2.4-.6-5.5 1.8-6.8l18.3-10.6zm0-27v11.5l-13.3 7.7c-2.4 1.4-5.5.6-6.8-1.8-1.4-2.4-.6-5.5 1.8-6.8l18.3-10.6z" fill="#65e496"/><path d="M5 0C2.2 0 0 2.2 0 5V0h5zm0 409H0v-5c0 2.8 2.2 5 5 5z" fill="#fff"/><path d="M37.9 0v409H5c-2.8 0-5-2.2-5-5V5c0-2.8 2.2-5 5-5h32.9z" fill="#3d3d47"/></g></svg>